<?xml version="1.0" encoding="UTF-8"?>
<svg width="115px" height="20px" viewBox="0 0 115 20" version="1.1" xmlns="http://www.w3.org/2000/svg" xmlns:xlink="http://www.w3.org/1999/xlink">
    <title>logotipo_140x20_black</title>
    <desc>Created with Sketch.</desc>
    <defs></defs>
    <g id="Symbols" stroke="none" stroke-width="1" fill="none" fill-rule="evenodd">
        <g id="header" transform="translate(-32.000000, -30.000000)" fill="#000000">
            <g id="HEADER">
                <g id="logo_tagline'" transform="translate(32.000000, 23.000000)">
                    <path d="M48.0855613,16.1897698 L42.0084718,16.1882353 C41.5037591,16.1882353 41.0935196,16.5953964 41.0935196,17.0987212 C41.0935196,17.6015345 41.5032457,18.0097187 42.0079583,18.0102302 L47.1706092,18.0117647 L47.1695823,22.6081841 L44.5874867,25.1780051 L39.3960832,25.1764706 L36.8288774,22.6184143 L36.8324715,11.458312 L39.4340778,8.82097187 L44.6393443,8.82250639 L47.385741,11.6634271 C47.7359079,12.026087 48.3150695,12.0368286 48.6785858,11.687468 C49.0421022,11.3391304 49.0533979,10.7626598 48.7027176,10.4 L45.6862508,7.28030691 C45.5147614,7.10127877 45.2765247,7.00204604 45.0285327,7.00204604 L39.0510507,7 C38.8056258,7 38.5704698,7.09769821 38.398467,7.27161125 L35.2659625,10.4465473 C35.0985807,10.6163683 35.0035941,10.8460358 35.0035941,11.0849105 L35,22.9959079 C35,23.2373402 35.0965269,23.4690537 35.2680163,23.6393862 L38.3697143,26.7309463 C38.5406902,26.9028133 38.7732791,26.997954 39.0161367,26.997954 L44.9653794,27 C45.2082371,27 45.4408259,26.9048593 45.6128287,26.7335038 L48.72993,23.6306905 C48.9014193,23.458312 48.9979462,23.2265985 48.9979462,22.9851662 L49,17.1007673 C49,16.597954 48.5907874,16.1897698 48.0855613,16.1897698 M69.1812813,13.5491825 L66.7035769,16.0234881 L58.820761,16.0209378 L58.8233132,8.81683707 L66.7724871,8.81887731 L69.1817917,11.2284052 L69.1812813,13.5491825 Z M67.792358,7.26880212 C67.6223795,7.09997194 67.3911475,7.00306037 67.1502171,7.00306037 L57.9147195,7 C57.4124408,7 57.0051049,7.40702863 57.0051049,7.90841853 L57.0000005,26.0880106 C56.99949,26.5899105 57.4068259,26.9964291 57.9091046,26.9964291 C58.4108729,26.9964291 58.8176983,26.5904206 58.8176983,26.0885206 L58.8202505,17.8382849 L66.9041822,17.8408352 L69.1792395,20.1141768 L69.1777082,26.091581 C69.1771977,26.593481 69.5845335,26.9999995 70.0863019,26.9999995 C70.5875597,27.0005096 70.995406,26.593991 70.995406,26.092091 L70.9974478,19.738772 C70.9974478,19.4985333 70.9019944,19.2674757 70.730995,19.0966053 L68.4661466,16.8319347 L70.7330368,14.5687943 C70.9035257,14.3969038 70.9989791,14.1673763 70.9989791,13.9266276 L71,10.8524903 C71,10.6117415 70.9045466,10.3806839 70.7335472,10.2098135 L67.792358,7.26880212 Z M92.0866212,25.1831312 L87.0134954,25.1815997 L87.0186296,7.90935416 C87.0186296,7.5412839 86.7963178,7.20945912 86.4548919,7.06907171 C86.1134661,6.92868431 85.7196712,7.00628025 85.4583392,7.26561408 L79.3398856,13.3461756 C78.9825436,13.6999518 78.9825436,14.2768164 79.3393721,14.6311032 C79.6962007,14.986411 80.275341,14.986411 80.6326829,14.6316137 L85.1893059,10.1034817 L85.1851986,25.1810892 L79.9149186,25.1795577 C79.4102244,25.1795577 79.0005134,25.5859155 79,26.0877366 C79,26.5895578 79.409711,26.996426 79.9144051,26.996426 L92.0861078,26.9999995 C92.5908019,27.00051 92.9999995,26.5936418 92.9999995,26.0923311 C93.0005129,25.589489 92.5913154,25.1831312 92.0866212,25.1831312 M113.165081,22.6586467 L110.627154,25.1781946 L102.831833,25.17615 L102.836976,8.82643602 L110.602983,8.87908634 L113.168167,11.4308378 L113.165081,22.6586467 Z M114.732065,10.4105462 C114.903317,10.5817875 115,10.8128355 115,11.0541069 L114.9964,23.0358888 C114.9964,23.2771602 114.899717,23.5092306 114.727436,23.6799607 L111.653638,26.732657 C111.481872,26.9033872 111.249421,27.0005092 111.006171,26.999998 L101.915402,26.9974422 C101.409874,26.9974422 101,26.5890188 101,26.0860293 L101.005143,7.90991149 C101.005657,7.6671066 101.10234,7.43554742 101.276164,7.26430609 C101.448959,7.09357592 101.681923,6.99798747 101.927231,7.00003214 L110.991257,7.06188349 C111.231936,7.06341699 111.461815,7.15951661 111.633068,7.32769094 L114.732065,10.4105462 Z M10,8.50044736 C9.99970158,8.77482851 9.77588779,9 9.50193972,9 C9.22470904,9 9,8.77453027 9,8.50014912 C9,8.22397853 9.22500746,8 9.50223814,8 C9.77618621,8.00029824 10,8.22427677 10,8.50044736 Z M2,17.5004474 C1.99970158,17.7748285 1.77588779,18 1.50193972,18 C1.22470904,18 1,17.7745303 1,17.5001491 C1,17.2239785 1.22500746,17 1.50223814,17 C1.77618621,17.0002982 2,17.2242768 2,17.5004474 Z M18,17.5004474 C17.9997016,17.7748285 17.7758878,18 17.5019397,18 C17.224709,18 17,17.7745303 17,17.5001491 C17,17.2239785 17.2250075,17 17.5022381,17 C17.7761862,17.0002982 18,17.2242768 18,17.5004474 Z M2.35234135e-07,8.49931128 C2.35234135e-07,7.6734506 0.672176491,7 1.49862271,7 C2.32736461,7 3,7.67436873 3,8.50022942 C2.99954086,9.32930357 2.32644633,10.0004588 1.49770443,9.99999976 C0.671258217,9.99999976 -0.000458901553,9.32838543 2.35234135e-07,8.49931128 Z M8.00000024,17.4993113 C8.00000024,16.6734506 8.67217649,16 9.49862271,16 C10.3273646,16 11,16.6743687 11,17.5002294 C10.9995409,18.3293036 10.3264463,19.0004588 9.49770443,18.9999998 C8.67125822,18.9999998 7.9995411,18.3283854 8.00000024,17.4993113 Z M16.0000002,8.49931128 C16.0000002,7.6734506 16.6721765,7 17.4986227,7 C18.3273646,7 19,7.67436873 19,8.50022942 C18.9995409,9.32930357 18.3264463,10.0004588 17.4977044,9.99999976 C16.6712582,9.99999976 15.9995411,9.32838543 16.0000002,8.49931128 Z M10,25.5004474 C9.99970158,25.7748285 9.77588779,26 9.50193972,26 C9.22470904,26 9,25.7745303 9,25.5001491 C9,25.2239785 9.22500746,25 9.50223814,25 C9.77618621,25.0002982 10,25.2242768 10,25.5004474 Z M2.35234139e-07,25.4993113 C2.35234139e-07,24.6734506 0.672176491,24 1.49862271,24 C2.32736461,24 3,24.6743687 3,25.5002294 C2.99954086,26.3293036 2.32644633,27.0004588 1.49770443,26.9999998 C0.671258217,26.9999998 -0.000458901553,26.3283854 2.35234139e-07,25.4993113 Z M16.0000002,25.4993113 C16.0000002,24.6734506 16.6721765,24 17.4986227,24 C18.3273646,24 19,24.6743687 19,25.5002294 C18.9995409,26.3293036 18.3264463,27.0004588 17.4977044,26.9999998 C16.6712582,26.9999998 15.9995411,26.3283854 16.0000002,25.4993113 Z" id="logotipo_140x20_black"></path>
                </g>
            </g>
        </g>
    </g>
</svg>